<svg width="205" height="62" viewBox="0 0 205 62" fill="none" xmlns="http://www.w3.org/2000/svg">
<path d="M22.3664 6.2555L13.1864 31.9595H9.94636L0.766357 6.2555H4.15036L9.94636 22.7435C10.2104 23.4395 10.4384 24.1115 10.6304 24.7595C10.8224 25.4075 10.9904 26.0315 11.1344 26.6315C11.3024 27.2075 11.4464 27.7835 11.5664 28.3595C11.6864 27.7835 11.8184 27.1955 11.9624 26.5955C12.1304 25.9955 12.3104 25.3715 12.5024 24.7235C12.7184 24.0755 12.9464 23.3915 13.1864 22.6715L18.9464 6.2555H22.3664ZM47.9207 19.0715C47.9207 21.0635 47.6687 22.8755 47.1647 24.5075C46.6607 26.1155 45.9047 27.5075 44.8967 28.6835C43.9127 29.8595 42.6767 30.7595 41.1887 31.3835C39.7247 32.0075 38.0207 32.3195 36.0767 32.3195C34.0607 32.3195 32.3087 32.0075 30.8207 31.3835C29.3327 30.7355 28.0967 29.8355 27.1127 28.6835C26.1287 27.5075 25.3967 26.1035 24.9167 24.4715C24.4367 22.8395 24.1967 21.0275 24.1967 19.0355C24.1967 16.3955 24.6287 14.0915 25.4927 12.1235C26.3567 10.1555 27.6647 8.6195 29.4167 7.5155C31.1927 6.4115 33.4247 5.8595 36.1127 5.8595C38.6807 5.8595 40.8407 6.4115 42.5927 7.5155C44.3447 8.5955 45.6647 10.1315 46.5527 12.1235C47.4647 14.0915 47.9207 16.4075 47.9207 19.0715ZM27.6167 19.0715C27.6167 21.2315 27.9167 23.0915 28.5167 24.6515C29.1167 26.2115 30.0407 27.4115 31.2887 28.2515C32.5607 29.0915 34.1567 29.5115 36.0767 29.5115C38.0207 29.5115 39.6047 29.0915 40.8287 28.2515C42.0767 27.4115 43.0007 26.2115 43.6007 24.6515C44.2007 23.0915 44.5007 21.2315 44.5007 19.0715C44.5007 15.8315 43.8287 13.2995 42.4847 11.4755C41.1407 9.6275 39.0167 8.7035 36.1127 8.7035C34.1687 8.7035 32.5607 9.1235 31.2887 9.9635C30.0407 10.7795 29.1167 11.9675 28.5167 13.5275C27.9167 15.0635 27.6167 16.9115 27.6167 19.0715ZM53.6177 31.9595V6.2555H56.8577V29.0795H68.0897V31.9595H53.6177ZM91.6931 22.8875C91.6931 24.6635 91.3331 26.2715 90.6131 27.7115C89.8931 29.1275 88.7891 30.2555 87.3011 31.0955C85.8371 31.9115 83.9651 32.3195 81.6851 32.3195C78.4931 32.3195 76.0571 31.4555 74.3771 29.7275C72.7211 27.9755 71.8931 25.6715 71.8931 22.8155V6.2555H75.1331V22.9235C75.1331 25.0115 75.6851 26.6315 76.7891 27.7835C77.9171 28.9355 79.6091 29.5115 81.8651 29.5115C83.4251 29.5115 84.6851 29.2355 85.6451 28.6835C86.6291 28.1075 87.3491 27.3275 87.8051 26.3435C88.2611 25.3355 88.4891 24.1835 88.4891 22.8875V6.2555H91.6931V22.8875ZM118.853 31.9595H115.073L101.321 10.6115H101.177C101.201 11.0435 101.225 11.5235 101.249 12.0515C101.297 12.5795 101.333 13.1555 101.357 13.7795C101.381 14.3795 101.405 15.0035 101.429 15.6515C101.453 16.2995 101.465 16.9475 101.465 17.5955V31.9595H98.4771V6.2555H102.221L115.937 27.5315H116.081C116.057 27.2435 116.033 26.8475 116.009 26.3435C115.985 25.8155 115.961 25.2395 115.937 24.6155C115.913 23.9675 115.889 23.3075 115.865 22.6355C115.841 21.9635 115.829 21.3395 115.829 20.7635V6.2555H118.853V31.9595ZM133.965 31.9595H130.725V9.0995H122.697V6.2555H141.957V9.0995H133.965V31.9595ZM160.197 31.9595H145.833V6.2555H160.197V9.0995H149.073V17.1275H159.549V19.9355H149.073V29.1155H160.197V31.9595ZM180.2 31.9595H165.836V6.2555H180.2V9.0995H169.076V17.1275H179.552V19.9355H169.076V29.1155H180.2V31.9595ZM192.932 6.2555C195.068 6.2555 196.82 6.5315 198.188 7.0835C199.58 7.6115 200.612 8.4155 201.284 9.4955C201.956 10.5755 202.292 11.9315 202.292 13.5635C202.292 14.9315 202.04 16.0715 201.536 16.9835C201.032 17.8955 200.384 18.6275 199.592 19.1795C198.824 19.7075 198.008 20.1275 197.144 20.4395L204.2 31.9595H200.42L194.192 21.3395H189.08V31.9595H185.84V6.2555H192.932ZM192.752 9.0635H189.08V18.6035H192.932C194.324 18.6035 195.464 18.4235 196.352 18.0635C197.24 17.6795 197.888 17.1275 198.296 16.4075C198.728 15.6875 198.944 14.7875 198.944 13.7075C198.944 12.5795 198.716 11.6795 198.26 11.0075C197.828 10.3355 197.156 9.8435 196.244 9.5315C195.332 9.2195 194.168 9.0635 192.752 9.0635Z" fill="black"/>
<path d="M23.5504 40.1195V43.3115H18.5344V55.9595H14.4064V43.3115H9.36636V40.1195H23.5504ZM30.0214 40.1195V55.9595H25.8934V40.1195H30.0214ZM51.582 40.1195V55.9595H47.934V48.6875L48.054 43.8155H48.006L44.238 55.9595H40.902L37.134 43.8155H37.086L37.206 48.6875V55.9595H33.534V40.1195H39.414L41.79 48.1835L42.654 51.5435H42.702L43.59 48.2075L45.942 40.1195H51.582ZM55.0965 55.9595V40.1195H67.1445V43.3115H59.2245V46.5275H65.5365V49.5275H59.2245V52.7675H67.4565V55.9595H55.0965ZM89.1988 40.1195V43.3115H84.1828V55.9595H80.0548V43.3115H75.0148V40.1195H89.1988ZM98.9578 40.1195C100.814 40.1195 102.254 40.5595 103.278 41.4395C104.302 42.3195 104.814 43.5035 104.814 44.9915C104.814 46.0635 104.582 46.9755 104.118 47.7275C103.67 48.4635 103.006 49.0235 102.126 49.4075C101.262 49.7755 100.214 49.9595 98.9818 49.9595L98.5978 50.1755H95.5978V55.9595H91.5418V40.1195H98.9578ZM98.3818 47.2475C99.0698 47.2475 99.6218 47.1035 100.038 46.8155C100.454 46.5275 100.662 45.9995 100.662 45.2315C100.662 44.4475 100.446 43.9195 100.014 43.6475C99.5818 43.3755 99.0378 43.2395 98.3818 43.2395H95.5978V47.2475H98.3818ZM100.806 48.1115L105.726 55.9595H101.166L97.2538 49.0235L100.806 48.1115ZM121.896 55.9595H117.648L116.592 52.3835H111.36L110.28 55.9595H106.128L111.552 40.1195H116.496L121.896 55.9595ZM112.128 49.5755H115.824L113.976 43.1675L112.128 49.5755ZM136.958 51.4235C136.51 53.0715 135.67 54.2795 134.438 55.0475C133.222 55.8155 131.798 56.1995 130.166 56.1995C128.598 56.1995 127.238 55.8795 126.086 55.2395C124.95 54.5835 124.07 53.6475 123.446 52.4315C122.838 51.1995 122.534 49.7355 122.534 48.0395C122.534 46.3275 122.838 44.8635 123.446 43.6475C124.07 42.4315 124.95 41.5035 126.086 40.8635C127.238 40.2075 128.59 39.8795 130.142 39.8795C131.214 39.8795 132.206 40.0395 133.118 40.3595C134.03 40.6635 134.798 41.1355 135.422 41.7755C136.062 42.4155 136.51 43.2395 136.766 44.2475L133.142 45.7115C132.934 44.7195 132.582 44.0395 132.086 43.6715C131.606 43.3035 131.006 43.1195 130.286 43.1195C129.55 43.1195 128.918 43.3035 128.39 43.6715C127.862 44.0395 127.454 44.5915 127.166 45.3275C126.894 46.0475 126.758 46.9515 126.758 48.0395C126.758 49.1115 126.886 50.0155 127.142 50.7515C127.414 51.4715 127.814 52.0235 128.342 52.4075C128.87 52.7755 129.526 52.9595 130.31 52.9595C131.03 52.9595 131.646 52.7515 132.158 52.3355C132.686 51.9035 133.038 51.2475 133.214 50.3675L136.958 51.4235ZM153.349 40.1195L146.077 49.0235L145.837 48.3995L142.165 52.9835L141.373 49.6475L148.789 40.1195H153.349ZM143.389 40.1195V55.9595H139.261V40.1195H143.389ZM147.445 45.3515L153.637 55.9595H148.957L144.349 47.6555L147.445 45.3515ZM159.724 40.1195V55.9595H155.596V40.1195H159.724ZM177.229 40.1195V55.9595H172.645L167.989 47.3915L166.813 45.0395H166.789L166.885 47.9675V55.9595H163.237V40.1195H167.821L172.477 48.6875L173.653 51.0395H173.677L173.581 48.1115V40.1195H177.229ZM187.105 56.1995C185.729 56.1995 184.505 55.8875 183.433 55.2635C182.377 54.6395 181.545 53.7195 180.937 52.5035C180.345 51.2875 180.049 49.8075 180.049 48.0635C180.049 46.3515 180.361 44.8875 180.985 43.6715C181.625 42.4555 182.529 41.5195 183.697 40.8635C184.865 40.2075 186.241 39.8795 187.825 39.8795C189.585 39.8795 191.001 40.2075 192.073 40.8635C193.161 41.5035 194.001 42.5275 194.593 43.9355L190.777 45.4475C190.585 44.6315 190.233 44.0395 189.721 43.6715C189.209 43.3035 188.585 43.1195 187.849 43.1195C187.097 43.1195 186.449 43.3115 185.905 43.6955C185.377 44.0635 184.969 44.6155 184.681 45.3515C184.409 46.0715 184.273 46.9675 184.273 48.0395C184.273 49.1595 184.409 50.0955 184.681 50.8475C184.969 51.5835 185.393 52.1355 185.953 52.5035C186.529 52.8715 187.233 53.0555 188.065 53.0555C188.497 53.0555 188.897 52.9995 189.265 52.8875C189.633 52.7755 189.953 52.6155 190.225 52.4075C190.497 52.1835 190.713 51.9115 190.873 51.5915C191.033 51.2555 191.113 50.8635 191.113 50.4155V50.1755H187.633V47.4155H194.617V55.9595H191.809L191.497 52.2395L192.169 52.8155C191.849 53.8875 191.265 54.7195 190.417 55.3115C189.569 55.9035 188.465 56.1995 187.105 56.1995Z" fill="black"/>
</svg>
